<svg width="290" height="51" viewBox="0 0 290 51" fill="none" xmlns="http://www.w3.org/2000/svg">
<path d="M80.9447 41.5992C77.841 41.5992 75.1982 40.8924 73.0164 39.4789C70.8654 38.0653 69.3596 36.1293 68.4992 33.671L73.0625 30.9975C74.3532 34.6236 77.0267 36.4366 81.083 36.4366C83.0804 36.4366 84.5708 36.0525 85.5541 35.2843C86.5682 34.4853 87.0753 33.4559 87.0753 32.196C87.0753 30.8746 86.5375 29.8759 85.4619 29.1998C84.3864 28.493 82.4812 27.7248 79.7462 26.8951C78.2097 26.4341 76.9652 26.0039 76.0126 25.6044C75.06 25.205 74.0459 24.6518 72.9703 23.945C71.9255 23.2075 71.1419 22.301 70.6195 21.2255C70.0971 20.1499 69.8359 18.89 69.8359 17.4457C69.8359 14.5879 70.85 12.3292 72.8782 10.6698C74.9063 8.97969 77.3493 8.13463 80.2072 8.13463C82.7885 8.13463 85.0471 8.76458 86.9831 10.0245C88.919 11.2844 90.4094 13.0206 91.4542 15.2332L86.9831 17.8145C85.631 14.803 83.3723 13.2972 80.2072 13.2972C78.6707 13.2972 77.4415 13.666 76.5196 14.4035C75.5977 15.1103 75.1368 16.0782 75.1368 17.3074C75.1368 18.5059 75.5977 19.4585 76.5196 20.1653C77.4722 20.8413 79.1777 21.5635 81.6361 22.3317C82.8653 22.7312 83.7565 23.0385 84.3096 23.2536C84.8935 23.438 85.6924 23.7453 86.7065 24.1755C87.7513 24.6057 88.5349 25.0359 89.0573 25.4662C89.5797 25.8964 90.1329 26.4341 90.7167 27.0795C91.3313 27.7248 91.7615 28.4623 92.0074 29.292C92.2532 30.1217 92.3761 31.059 92.3761 32.1038C92.3761 35.0231 91.3159 37.3432 89.1956 39.064C87.106 40.7542 84.3557 41.5992 80.9447 41.5992ZM115.043 17.9528H120.021V41H115.043V37.6812C113.169 40.2932 110.48 41.5992 106.977 41.5992C103.811 41.5992 101.107 40.4315 98.8639 38.096C96.6207 35.7299 95.499 32.8566 95.499 29.4764C95.499 26.0654 96.6207 23.1922 98.8639 20.8567C101.107 18.5213 103.811 17.3535 106.977 17.3535C110.48 17.3535 113.169 18.6442 115.043 21.2255V17.9528ZM102.551 34.7772C103.934 36.1601 105.671 36.8515 107.76 36.8515C109.85 36.8515 111.586 36.1601 112.969 34.7772C114.352 33.3637 115.043 31.5967 115.043 29.4764C115.043 27.356 114.352 25.6044 112.969 24.2216C111.586 22.808 109.85 22.1013 107.76 22.1013C105.671 22.1013 103.934 22.808 102.551 24.2216C101.169 25.6044 100.477 27.356 100.477 29.4764C100.477 31.5967 101.169 33.3637 102.551 34.7772ZM125.363 41V7.35102H130.341V41H125.363ZM139.578 31.5967C139.947 33.3483 140.792 34.7004 142.114 35.653C143.435 36.5749 145.048 37.0359 146.953 37.0359C149.596 37.0359 151.578 36.0833 152.9 34.178L157.002 36.5749C154.728 39.9245 151.363 41.5992 146.907 41.5992C143.158 41.5992 140.131 40.4622 137.827 38.1882C135.522 35.8835 134.37 32.9796 134.37 29.4764C134.37 26.0347 135.507 23.1614 137.781 20.8567C140.055 18.5213 142.974 17.3535 146.539 17.3535C149.919 17.3535 152.685 18.5366 154.836 20.9028C157.017 23.269 158.108 26.1422 158.108 29.5225C158.108 30.0449 158.047 30.7363 157.924 31.5967H139.578ZM139.532 27.5404H153.084C152.746 25.6659 151.962 24.2523 150.733 23.2997C149.535 22.3471 148.121 21.8708 146.492 21.8708C144.649 21.8708 143.112 22.3778 141.883 23.3919C140.654 24.406 139.87 25.7888 139.532 27.5404ZM165.599 24.3138C165.599 25.082 166.014 25.6966 166.843 26.1576C167.704 26.5878 168.733 26.9719 169.932 27.3099C171.161 27.6172 172.39 27.986 173.619 28.4162C174.848 28.8464 175.878 29.5839 176.707 30.6287C177.568 31.6428 177.998 32.9335 177.998 34.5007C177.998 36.7132 177.138 38.4494 175.417 39.7094C173.727 40.9693 171.591 41.5992 169.01 41.5992C166.736 41.5992 164.784 41.1229 163.156 40.1703C161.527 39.2177 160.344 37.8963 159.606 36.2062L163.893 33.7171C164.692 35.9296 166.398 37.0359 169.01 37.0359C171.622 37.0359 172.928 36.1754 172.928 34.4546C172.928 33.7171 172.497 33.1178 171.637 32.6569C170.807 32.196 169.778 31.8118 168.549 31.5045C167.35 31.1665 166.136 30.7824 164.907 30.3522C163.678 29.922 162.633 29.2152 161.773 28.2318C160.943 27.2177 160.528 25.9425 160.528 24.406C160.528 22.2856 161.327 20.5801 162.925 19.2895C164.554 17.9988 166.567 17.3535 168.964 17.3535C170.869 17.3535 172.559 17.7837 174.034 18.6442C175.54 19.4739 176.692 20.6416 177.491 22.1474L173.296 24.4982C172.497 22.7466 171.053 21.8708 168.964 21.8708C168.011 21.8708 167.212 22.0859 166.567 22.5161C165.921 22.9156 165.599 23.5148 165.599 24.3138ZM186.891 21.8247C188.151 18.9668 190.518 17.5379 193.99 17.5379V22.931C192.085 22.808 190.425 23.269 189.012 24.3138C187.598 25.3279 186.891 27.018 186.891 29.3842V41H181.913V17.9528H186.891V21.8247ZM214.38 17.9528H219.359V41H214.38V37.6812C212.506 40.2932 209.817 41.5992 206.314 41.5992C203.149 41.5992 200.444 40.4315 198.201 38.096C195.958 35.7299 194.836 32.8566 194.836 29.4764C194.836 26.0654 195.958 23.1922 198.201 20.8567C200.444 18.5213 203.149 17.3535 206.314 17.3535C209.817 17.3535 212.506 18.6442 214.38 21.2255V17.9528ZM201.889 34.7772C203.272 36.1601 205.008 36.8515 207.097 36.8515C209.187 36.8515 210.923 36.1601 212.306 34.7772C213.689 33.3637 214.38 31.5967 214.38 29.4764C214.38 27.356 213.689 25.6044 212.306 24.2216C210.923 22.808 209.187 22.1013 207.097 22.1013C205.008 22.1013 203.272 22.808 201.889 24.2216C200.506 25.6044 199.814 27.356 199.814 29.4764C199.814 31.5967 200.506 33.3637 201.889 34.7772ZM249.868 17.3535C252.48 17.3535 254.585 18.1986 256.183 19.8887C257.781 21.5789 258.58 23.8528 258.58 26.7107V41H253.601V27.0334C253.601 25.4354 253.202 24.2062 252.403 23.3458C251.604 22.4546 250.513 22.0091 249.13 22.0091C247.594 22.0091 246.364 22.5161 245.443 23.5302C244.551 24.5443 244.106 26.0654 244.106 28.0935V41H239.128V27.0334C239.128 25.4354 238.744 24.2062 237.975 23.3458C237.238 22.4546 236.178 22.0091 234.795 22.0091C233.289 22.0091 232.06 22.5315 231.107 23.5763C230.155 24.5904 229.678 26.0961 229.678 28.0935V41H224.7V17.9528H229.678V20.7184C231.153 18.4752 233.35 17.3535 236.27 17.3535C239.22 17.3535 241.402 18.5673 242.815 20.995C244.352 18.5673 246.703 17.3535 249.868 17.3535ZM276.491 17.3535C279.656 17.3535 282.361 18.5366 284.604 20.9028C286.847 23.2383 287.969 26.0961 287.969 29.4764C287.969 32.8874 286.847 35.7606 284.604 38.096C282.361 40.4315 279.656 41.5992 276.491 41.5992C272.988 41.5992 270.299 40.3086 268.425 37.7273V50.2189H263.446V17.9528H268.425V21.2716C270.299 18.6595 272.988 17.3535 276.491 17.3535ZM270.499 34.7772C271.882 36.1601 273.618 36.8515 275.708 36.8515C277.797 36.8515 279.533 36.1601 280.916 34.7772C282.299 33.3637 282.991 31.5967 282.991 29.4764C282.991 27.356 282.299 25.6044 280.916 24.2216C279.533 22.808 277.797 22.1013 275.708 22.1013C273.618 22.1013 271.882 22.808 270.499 24.2216C269.116 25.6044 268.425 27.356 268.425 29.4764C268.425 31.5967 269.116 33.3637 270.499 34.7772Z" fill="#2C2B36"/>
<g clip-path="url(#clip0_3784_9912)">
<path d="M47.4713 31.9845V40.7927H14.5526C20.8263 39.0391 28.3666 36.2845 35.9669 31.9845H47.4713V31.9845Z" fill="#A59BFF"/>
<path d="M46.5815 20.9539C34.4178 31.3036 20.4839 36.3043 10.8058 38.6865C16.5479 35.2032 23.8885 29.6981 30.266 21.6265C33.8704 19.5846 37.4747 17.1463 40.8913 14.2396L46.5815 20.9539V20.9539Z" fill="#7C6FF6"/>
<path d="M37.2183 3.52622C26.7489 30.5876 1.49049 40.2367 0 40.7812V31.1562C6.54137 27.9171 21.9378 18.6444 29.0186 0.343231L37.2183 3.52622Z" fill="#370FA8"/>
</g>
<defs>
<clipPath id="clip0_3784_9912">
<rect width="47.4719" height="40.45" fill="white" transform="translate(0 0.34259)"/>
</clipPath>
</defs>
</svg>
